<svg xmlns="http://www.w3.org/2000/svg" viewBox="0 0 88.97 101.06"><g id="Layer_2" data-name="Layer 2"><g id="Layer_1-2" data-name="Layer 1"><polygon fill="#181718" points=" 88.37,54.55 45.370000000000005,29.139999999999997 44.370000000000005,29.139999999999997 32.370000000000005,35.849999999999994 32.370000000000005,37.589999999999996 74.35,61.42 74.86,62.29 74.86,67.28999999999999 74.33,68.16999999999999 44.46,84.09 43.46,84.09 1.4600000000000009,61.160000000000004 0,62.05 0.11000000000000001,74.64999999999999 0.6000000000000001,75.49999999999999 43.6,100.91999999999999 44.6,100.91999999999999 88.46,76.62 88.97,75.74000000000001 88.86,55.4 88.37,54.55"></polygon><polygon fill="#181718" points=" 0.6100000000000001,46.51 43.61,71.92 44.61,71.92 56.61,65.2 56.61,63.46 14.620000000000001,39.64 14.110000000000001,38.77 14.110000000000001,33.77 14.64,32.88 44.51,17 45.51,17 87.50999999999999,39.92 89,39 88.86,26.4 88.37,25.549999999999997 45.36,0.14 44.36,0.14 0.52,24.43 0,25.31 0.11000000000000001,45.65 0.6100000000000001,46.51"></polygon></g></g></svg>
